<svg width="28" height="28" viewBox="0 0 28 28" fill="none" xmlns="http://www.w3.org/2000/svg">
<path d="M21.9716 21.575C21.9716 23.076 18.4505 24.2854 14.1093 24.2854C9.76816 24.2854 6.24709 23.0652 6.24709 21.575C6.24709 20.074 9.76816 18.8646 14.1093 18.8646C18.4505 18.8646 21.9716 20.074 21.9716 21.575Z" fill="#9EDCF2"/>
<mask id="mask0_1_8" style="mask-type:luminance" maskUnits="userSpaceOnUse" x="9" y="20" width="10" height="8">
<path d="M10.7304 26.4342C10.9054 27.2441 11.3319 27.7192 11.7583 28H16.2526C16.7994 27.6329 17.357 26.9418 17.357 25.646V22.2985C17.357 22.2985 17.4227 21.467 18.199 21.1971C18.199 21.1971 18.6474 20.8839 18.1662 20.7111C18.1662 20.7111 16.0339 20.5384 16.0339 22.2661V24.8145C16.0339 24.8145 16.1214 25.754 15.6184 26.1427V22.9896C15.6184 22.9896 15.6512 21.9853 16.1761 21.6074C16.1761 21.6074 16.526 20.9919 15.7605 21.1539C15.7605 21.1539 14.2952 21.359 14.2296 23.0544L14.1968 26.2939H13.8469L13.8141 23.0544C13.7485 21.3698 12.2832 21.1539 12.2832 21.1539C11.5178 20.9811 11.8677 21.6074 11.8677 21.6074C12.3926 21.9853 12.4254 22.9896 12.4254 22.9896V26.1751C11.9224 25.8187 12.0098 24.8145 12.0098 24.8145V22.2661C12.0098 20.5384 9.87751 20.7111 9.87751 20.7111C9.38543 20.8839 9.8447 21.1971 9.8447 21.1971C10.6102 21.4778 10.6867 22.2985 10.6867 22.2985V24.6417L10.7304 26.4342V26.4342Z" fill="white"/>
</mask>
<g mask="url(#mask0_1_8)">
<path d="M21.9716 21.575C21.9716 23.076 18.4505 24.2854 14.1093 24.2854C9.76816 24.2854 6.24709 23.0652 6.24709 21.575C6.24709 20.074 9.76816 18.8646 14.1093 18.8646C18.4505 18.8646 21.9716 20.074 21.9716 21.575Z" fill="#7DBCE7"/>
</g>
<path d="M5.13172 13.5951L4.90209 14.3725C4.90209 14.3725 4.84741 14.6533 5.10985 14.7073C5.39416 14.6965 5.37229 14.4373 5.35042 14.3617L5.13172 13.5951Z" fill="#9EDCF2"/>
<path d="M27.9749 10.3232L27.9968 10.226C25.6895 9.77246 23.3275 9.76166 21.8951 9.82645C22.1247 8.99498 22.2012 8.02314 22.2012 6.9541C22.2012 5.40995 21.6108 4.17894 20.6703 3.25029C20.8344 2.72117 21.0531 1.54416 20.4516 0.0431913C20.4516 0.0431913 19.38 -0.291556 16.9415 1.31739C15.9902 1.07983 14.9732 0.961047 13.9563 0.961047C12.8409 0.961047 11.7146 1.10143 10.6539 1.38218C8.13885 -0.313153 7.03441 0.032393 7.03441 0.032393C6.3127 1.81411 6.76104 3.1423 6.89226 3.46625C6.03933 4.37331 5.52538 5.52873 5.52538 6.94331C5.52538 8.01234 5.64567 8.97339 5.95185 9.80486C4.50843 9.75087 2.23395 9.77246 0.00321198 10.2152L0.025082 10.3124C2.25582 9.86965 4.55217 9.85885 5.98465 9.91284C6.05026 10.0856 6.12681 10.2584 6.20335 10.4204C4.7818 10.4636 2.36517 10.6471 0.0469519 11.295L0.0797569 11.3922C2.41984 10.7443 4.85835 10.5715 6.26896 10.5283C7.12189 12.0833 8.78401 13.0983 11.7583 13.4115C11.3319 13.6922 10.9054 14.1674 10.7304 14.9772C10.1509 15.2472 8.33567 15.9167 7.24218 14.0594C7.24218 14.0594 6.62982 12.958 5.45977 12.8716C5.45977 12.8716 4.32253 12.85 5.38323 13.5735C5.38323 13.5735 6.13774 13.9298 6.66262 15.258C6.66262 15.258 7.35153 17.5256 10.643 16.7914V19.113C10.643 19.113 10.5773 19.9445 9.80096 20.2144C9.80096 20.2144 9.34169 20.5276 9.83377 20.7003C9.83377 20.7003 11.9661 20.8731 11.9661 19.1454V16.597C11.9661 16.597 11.8786 15.582 12.3816 15.2364V19.4261C12.3816 19.4261 12.3488 20.4304 11.8239 20.8083C11.8239 20.8083 11.474 21.4238 12.2395 21.2619C12.2395 21.2619 13.7048 21.0567 13.7704 19.3614L13.8032 15.1176H14.1531L14.1859 19.3614C14.2515 21.0459 15.7168 21.2619 15.7168 21.2619C16.4822 21.4346 16.1323 20.8083 16.1323 20.8083C15.6074 20.4304 15.5746 19.4261 15.5746 19.4261V15.2688C16.0776 15.6575 15.9902 16.597 15.9902 16.597V19.1454C15.9902 20.8731 18.1225 20.7003 18.1225 20.7003C18.6146 20.5276 18.1553 20.2144 18.1553 20.2144C17.3898 19.9337 17.3133 19.113 17.3133 19.113V15.7655C17.3133 14.4589 16.7556 13.7678 16.2089 13.4115C19.38 13.0983 20.9 12.0941 21.5998 10.5175C22.9886 10.5499 25.4927 10.7227 27.8765 11.3922L27.9093 11.295C25.5364 10.6363 23.0542 10.4636 21.6436 10.4204C21.7092 10.2584 21.7638 10.0964 21.8185 9.92364C23.2838 9.86965 25.6567 9.86965 27.9749 10.3232Z" fill="#010101"/>
<path d="M19.0957 6.87852C19.7737 7.49402 20.1783 8.22831 20.1783 9.01658C20.1783 12.7312 17.3789 12.8284 13.9235 12.8284C10.468 12.8284 7.66864 12.3101 7.66864 9.01658C7.66864 8.22831 8.0623 7.49402 8.74027 6.88932C9.86657 5.87428 11.7693 6.41419 13.9235 6.41419C16.0776 6.41419 17.9694 5.86348 19.0957 6.87852Z" fill="#F5CCB3"/>
<path d="M11.8458 9.21095C11.8458 10.2368 11.2663 11.0575 10.5445 11.0575C9.82283 11.0575 9.24328 10.226 9.24328 9.21095C9.24328 8.18511 9.82283 7.36444 10.5445 7.36444C11.2663 7.35364 11.8458 8.18511 11.8458 9.21095Z" fill="white"/>
<path d="M11.4303 9.23255C11.4303 9.91284 11.0366 10.4636 10.5664 10.4636C10.0853 10.4636 9.70255 9.91284 9.70255 9.23255C9.70255 8.55225 10.0962 8.00154 10.5664 8.00154C11.0366 8.00154 11.4303 8.55225 11.4303 9.23255Z" fill="#AF5C51"/>
<path d="M18.8333 9.21095C18.8333 10.2368 18.2537 11.0575 17.532 11.0575C16.8103 11.0575 16.2307 10.226 16.2307 9.21095C16.2307 8.18511 16.8103 7.36444 17.532 7.36444C18.2428 7.35364 18.8333 8.18511 18.8333 9.21095Z" fill="white"/>
<path d="M18.4068 9.23255C18.4068 9.91284 18.0131 10.4636 17.5429 10.4636C17.0618 10.4636 16.6791 9.91284 16.6791 9.23255C16.6791 8.55225 17.0727 8.00154 17.5429 8.00154C18.0241 8.00154 18.4068 8.55225 18.4068 9.23255ZM14.2734 10.8523C14.2734 11.0251 14.1312 11.1762 13.9453 11.1762C13.7704 11.1762 13.6173 11.0359 13.6173 10.8523C13.6173 10.6687 13.7594 10.5283 13.9453 10.5283C14.1203 10.5283 14.2734 10.6687 14.2734 10.8523ZM13.1908 11.6622C13.1689 11.6082 13.2017 11.5542 13.2564 11.5326C13.3111 11.511 13.3658 11.5434 13.3876 11.5974C13.4751 11.8349 13.6938 11.9861 13.9453 11.9861C14.1968 11.9861 14.4155 11.8241 14.503 11.5974C14.5249 11.5434 14.5796 11.511 14.6342 11.5326C14.6889 11.5542 14.7217 11.6082 14.6998 11.6622C14.5905 11.9753 14.2843 12.1913 13.9453 12.1913C13.6063 12.1913 13.3002 11.9753 13.1908 11.6622Z" fill="#AF5C51"/>
<path d="M5.96278 13.1307C5.96278 13.2171 5.86437 13.2819 5.73315 13.2819C5.61286 13.2819 5.50351 13.2171 5.50351 13.1307C5.50351 13.0444 5.60193 12.9796 5.73315 12.9796C5.86437 12.9796 5.96278 13.0444 5.96278 13.1307ZM6.59701 13.4763C6.59701 13.5627 6.4986 13.6275 6.36738 13.6275C6.24709 13.6275 6.13774 13.5627 6.13774 13.4763C6.13774 13.3899 6.23616 13.3251 6.36738 13.3251C6.4986 13.3251 6.59701 13.3899 6.59701 13.4763ZM6.97974 13.9298C6.97974 14.0162 6.88132 14.081 6.7501 14.081C6.62982 14.081 6.52047 14.0162 6.52047 13.9298C6.52047 13.8434 6.61888 13.7786 6.7501 13.7786C6.88132 13.7678 6.97974 13.8434 6.97974 13.9298ZM7.32966 14.4481C7.32966 14.5345 7.23124 14.5993 7.10002 14.5993C6.97974 14.5993 6.87039 14.5345 6.87039 14.4481C6.87039 14.3617 6.9688 14.297 7.10002 14.297C7.23124 14.2862 7.32966 14.3617 7.32966 14.4481ZM7.71238 14.9233C7.71238 15.0096 7.61397 15.0744 7.48275 15.0744C7.36246 15.0744 7.25311 15.0096 7.25311 14.9233C7.25311 14.8369 7.35153 14.7721 7.48275 14.7721C7.61397 14.7721 7.71238 14.8369 7.71238 14.9233ZM8.23726 15.3444C8.23726 15.4308 8.13884 15.4956 8.00762 15.4956C7.88734 15.4956 7.77799 15.4308 7.77799 15.3444C7.77799 15.258 7.8764 15.1932 8.00762 15.1932C8.13884 15.1824 8.23726 15.258 8.23726 15.3444ZM8.9699 15.6143C8.9699 15.7007 8.87149 15.7655 8.74027 15.7655C8.61998 15.7655 8.51063 15.7007 8.51063 15.6143C8.51063 15.528 8.60905 15.4632 8.74027 15.4632C8.87149 15.4632 8.9699 15.528 8.9699 15.6143ZM9.70255 15.6143C9.70255 15.7007 9.60413 15.7655 9.47291 15.7655C9.35263 15.7655 9.24328 15.7007 9.24328 15.6143C9.24328 15.528 9.34169 15.4632 9.47291 15.4632C9.60413 15.4632 9.70255 15.528 9.70255 15.6143ZM10.4461 15.4956C10.4461 15.582 10.3477 15.6467 10.2165 15.6467C10.0962 15.6467 9.98686 15.582 9.98686 15.4956C9.98686 15.4092 10.0853 15.3444 10.2165 15.3444C10.3368 15.3444 10.4461 15.4092 10.4461 15.4956Z" fill="#C4E5D9"/>
<path d="M11.9167 11.0833H10.6667C9.99167 11.0833 9.4 10.5583 9.31667 9.89167L9.10833 8.64583C9.0625 8.29167 9.1625 7.95833 9.37917 7.71667C9.59583 7.475 9.9125 7.33333 10.25 7.33333H12.75C13.0958 7.33333 13.4083 7.47917 13.6083 7.73333C13.6542 7.79583 13.6958 7.8625 13.7292 7.9375C13.9083 7.9 14.0917 7.9 14.2667 7.9375C14.3 7.8625 14.3417 7.79583 14.3917 7.73333C14.5875 7.47917 14.9 7.33333 15.25 7.33333H17.75C18.0875 7.33333 18.4042 7.475 18.6208 7.71667C18.8333 7.95833 18.9333 8.29167 18.8917 8.62917L18.6792 9.90833C18.6 10.5583 18.0042 11.0833 17.3333 11.0833H16.0833C15.4333 11.0833 14.8 10.5875 14.6417 9.95833L14.2667 8.82917C14.1083 8.7125 13.8875 8.7125 13.7292 8.82917L13.3458 9.9875C13.1958 10.5917 12.5667 11.0833 11.9167 11.0833Z" fill="black"/>
</svg>
